PathFileType	4	(X/Y/Z)	/Users/itak/Documents/Research/Walk-IL/dataset/trc/00572_00009.trc
DataRate	CameraRate	NumFrames	NumMarkers	Units	OrigDataRate	OrigDataStartFrame	OrigNumFrames
100.000000	100.000000	4	53	mm	100.000000	320	513
Frame#	Time	RPSI			LPSI			L3			STRN			T10			C7			CLAV			RBAK			LBAK			LSHO			LUPA			LAEL			LAOL			LWTS			LWPS			LFRA			LIFD			LHPS			LHTS			RSHO			RUPA			RAEL			RAOL			RWTS			RWPS			RFRA			RHTS			RHPS			RBHD			LFHD			RFHD			LBHD			LHIP			RHIP			RASI			LASI			LKNE			LTHI			LANK			LTIP			LTOE			LMT1			LMT5			LHEE			RKNE			RTHI			RANK			RTIP			RTOE			RMT1			RMT5			RHEE			RIFD			
		X1	Y1	Z1	X2	Y2	Z2	X3	Y3	Z3	X4	Y4	Z4	X5	Y5	Z5	X6	Y6	Z6	X7	Y7	Z7	X8	Y8	Z8	X9	Y9	Z9	X10	Y10	Z10	X11	Y11	Z11	X12	Y12	Z12	X13	Y13	Z13	X14	Y14	Z14	X15	Y15	Z15	X16	Y16	Z16	X17	Y17	Z17	X18	Y18	Z18	X19	Y19	Z19	X20	Y20	Z20	X21	Y21	Z21	X22	Y22	Z22	X23	Y23	Z23	X24	Y24	Z24	X25	Y25	Z25	X26	Y26	Z26	X27	Y27	Z27	X28	Y28	Z28	X29	Y29	Z29	X30	Y30	Z30	X31	Y31	Z31	X32	Y32	Z32	X33	Y33	Z33	X34	Y34	Z34	X35	Y35	Z35	X36	Y36	Z36	X37	Y37	Z37	X38	Y38	Z38	X39	Y39	Z39	X40	Y40	Z40	X41	Y41	Z41	X42	Y42	Z42	X43	Y43	Z43	X44	Y44	Z44	X45	Y45	Z45	X46	Y46	Z46	X47	Y47	Z47	X48	Y48	Z48	X49	Y49	Z49	X50	Y50	Z50	X51	Y51	Z51	X52	Y52	Z52	X53	Y53	Z53	

321	3.2	124.6680908203125	998.1846923828125	618.98388671875	252.3343048095703	1000.535278320312	579.3009643554688	190.0750274658203	1103.161010742188	603.7529907226562	270.0115661621094	1290.479736328125	829.9158935546875	187.6924743652344	1228.677856445312	600.6098022460938	190.3965759277344	1502.703369140625	656.1451416015625	262.804931640625	1401.5556640625	813.822265625	86.71405792236328	1377.154174804688	617.9241333007812	263.0170288085938	1451.945068359375	590.3351440429688	376.5660400390625	1474.313598632812	650.493896484375	443.1728515625	1347.556884765625	606.6415405273438	479.1256103515625	1130.020874023438	599.244384765625	386.5786437988281	1117.57421875	561.213134765625	511.8401794433594	887.1560668945312	695.6665649414062	540.9312744140625	868.1466674804688	614.2677001953125	502.38525390625	1044.770141601562	610.57470703125	515.180908203125	718.2647094726562	682.9576416015625	542.6375122070312	807.6207275390625	624.2200317382812	540.92724609375	810.83935546875	692.4432983398438	65.67444610595703	1464.7392578125	763.337158203125	-5.540044784545898	1401.390747070312	768.7322387695312	-51.17351150512695	1113.358642578125	776.393310546875	-47.96681976318359	1092.342041015625	715.996826171875	59.01590347290039	923.5369262695312	913.3569946289062	-14.59431457519531	889.0872192382812	897.5557861328125	-50.01552200317383	1058.939575195312	794.0596923828125	66.01213073730469	839.2976684570312	960.040771484375	4.990206718444824	820.3893432617188	924.5280151367188	154.1487426757812	1679.228149414062	751.0764770507812	324.560546875	1702.051513671875	869.097900390625	182.1267700195312	1695.629516601562	888.6541748046875	319.9285278320312	1685.509033203125	736.3936157226562	415.5702514648438	935.017578125	670.5830688476562	48.59311294555664	929.5792236328125	775.6600952148438	125.0885238647461	970.2698364257812	842.2042846679688	387.3059692382812	966.9853515625	758.2905883789062	455.5989074707031	517.8794555664062	842.4867553710938	457.0275268554688	679.56591796875	783.2891845703125	408.8904418945312	103.482795715332	576.5031127929688	434.1585083007812	311.1155395507812	689.1524658203125	443.4284362792969	50.79082107543945	780.4060668945312	381.8340454101562	69.92273712158203	735.1873168945312	468.6697082519531	64.34814453125	673.2671508789062	333.21435546875	128.6825408935547	541.64501953125	166.2357025146484	494.5867004394531	811.19091796875	83.69190216064453	778.0015869140625	821.4448852539062	205.2279205322266	42.64699554443359	700.4140014648438	196.3734130859375	351.9559936523438	801.771240234375	317.7879028320312	41.85981750488281	895.5107421875	334.5697631835938	38.64872741699219	819.8017578125	230.8590240478516	45.07376098632812	830.7590942382812	236.7817230224609	32.50751876831055	632.1301879882812	86.1356201171875	757.2727661132812	947.4229125976562	
322	3.21	128.0159301757812	998.32373046875	624.053955078125	256.0834350585938	1000.617248535156	585.5313720703125	193.3831024169922	1103.406860351562	609.4189453125	271.6510009765625	1290.621704101562	836.388916015625	190.8059997558594	1228.869750976562	606.558349609375	192.7530059814453	1502.852783203125	662.3646240234375	264.6457214355469	1401.672485351562	820.2791748046875	89.21846008300781	1377.332153320312	623.665283203125	265.6045837402344	1452.136474609375	596.8506469726562	378.9778137207031	1474.450073242188	657.3738403320312	445.5301513671875	1347.730834960938	613.301513671875	480.8904418945312	1130.158569335938	604.8736572265625	388.2986145019531	1118.156494140625	566.7854614257812	512.9066772460938	886.6719970703125	699.9454956054688	541.9415893554688	868.012939453125	618.4688720703125	503.9051513671875	1044.789916992188	615.7621459960938	515.6563720703125	717.8109741210938	686.1382446289062	543.4158325195312	807.4227905273438	627.998046875	541.6931762695312	810.2335815429688	696.2319946289062	67.63166046142578	1464.803955078125	769.0921630859375	-3.582444429397583	1401.36962890625	774.2232666015625	-48.55133438110352	1113.229614257812	781.8447265625	-45.09260559082031	1092.099731445312	721.5091552734375	61.95132064819336	924.3181762695312	919.7101440429688	-11.40135097503662	889.4757690429688	903.7687377929688	-47.22890472412109	1058.876586914062	799.6631469726562	69.14885711669922	840.3101806640625	966.741455078125	8.359087944030762	821.0127563476562	931.1057739257812	156.2637634277344	1679.34423828125	757.40087890625	326.3331604003906	1702.077270507812	875.7774658203125	183.8749847412109	1695.69775390625	894.9754028320312	322.0147705078125	1685.576171875	743.017822265625	418.4217224121094	935.416748046875	678.6349487304688	50.40270614624023	929.6713256835938	779.9121704101562	126.2437515258789	970.217041015625	847.2181396484375	389.1957092285156	967.4186401367188	765.9251708984375	456.5525817871094	519.9982299804688	855.1934204101562	458.7457885742188	680.8366088867188	793.8911743164062	421.265380859375	95.70293426513672	603.8394775390625	441.2178039550781	307.6112976074219	708.8902587890625	451.8459167480469	51.30119705200195	810.4607543945312	390.9759521484375	67.412841796875	763.0673217773438	479.384033203125	61.30822372436523	703.5055541992188	345.9236145019531	118.1729354858398	566.386962890625	166.5120391845703	494.2272033691406	813.1923828125	84.97980499267578	777.8738403320312	825.0787963867188	205.2708282470703	42.77602005004883	700.42333984375	196.5031433105469	351.6528625488281	803.0509643554688	317.6372375488281	41.83197402954102	895.673828125	334.6198120117188	38.79572296142578	820.0016479492188	230.7855834960938	44.98068618774414	830.8228759765625	236.9009857177734	32.70244598388672	632.0948486328125	89.82575225830078	758.3486328125	954.4838256835938	
323	3.22	131.3576049804688	998.41015625	629.144775390625	259.8111572265625	1000.634033203125	591.7604370117188	196.6913146972656	1103.612182617188	615.0438842773438	273.2828979492188	1290.716918945312	842.8046875	193.9483795166016	1229.018676757812	612.4832763671875	195.1040649414062	1502.952514648438	668.5256958007812	266.4637756347656	1401.751220703125	826.6904296875	91.7330322265625	1377.450927734375	629.3333740234375	268.1991577148438	1452.279541015625	603.3291625976562	381.3916625976562	1474.563720703125	664.2274169921875	447.9182434082031	1347.878295898438	620.0042114257812	482.7167663574219	1130.265380859375	610.7035522460938	390.1044616699219	1118.697875976562	572.501220703125	513.9395141601562	886.103759765625	704.3718872070312	543.0155639648438	867.8587036132812	622.8775634765625	505.4805908203125	1044.779907226562	621.162109375	516.0181884765625	717.28466796875	689.3118286132812	544.21923828125	807.20556640625	631.924560546875	542.3892211914062	809.5394897460938	700.153564453125	69.58367919921875	1464.806518554688	774.7650756835938	-1.63243842124939	1401.269287109375	779.64794921875	-45.87042999267578	1113.003540039062	787.2489013671875	-42.14216613769531	1091.785888671875	726.9652099609375	64.76786041259766	924.8070678710938	925.8912353515625	-8.356965065002441	889.6417846679688	909.7650146484375	-44.43710327148438	1058.707153320312	805.1793823242188	72.102294921875	840.9723510742188	973.1812133789062	11.44624137878418	821.3832397460938	937.4085693359375	158.3322296142578	1679.410522460938	763.664306640625	328.0553588867188	1702.0556640625	882.4149780273438	185.5932006835938	1695.701904296875	901.2420043945312	324.0651245117188	1685.602661132812	749.5992431640625	421.3639831542969	935.8167114257812	686.75146484375	52.21885681152344	929.7616577148438	784.1931762695312	127.4478378295898	970.1578369140625	852.229248046875	391.1270141601562	967.78466796875	773.5198974609375	457.3762817382812	521.9452514648438	867.4219970703125	460.3377990722656	681.9336547851562	804.1025390625	432.8579406738281	88.34370422363281	631.5817260742188	447.885986328125	304.2510375976562	728.646484375	459.0080261230469	52.10454559326172	840.50830078125	399.0616149902344	65.39006805419922	791.026611328125	489.0201721191406	58.56636428833008	733.93896484375	358.1166076660156	108.2532348632812	591.5313110351562	166.8437957763672	493.9053649902344	815.3085327148438	86.30968475341797	777.7517700195312	828.76953125	205.2947235107422	42.91846084594727	700.4332275390625	196.6859588623047	351.3603820800781	804.4031982421875	317.4642944335938	41.81655883789062	895.8384399414062	334.6465148925781	38.92546844482422	820.1986694335938	230.7131195068359	44.88792419433594	830.8818359375	237.0082397460938	32.92046737670898	632.0650024414062	93.22744750976562	759.0726318359375	961.2289428710938	
324	3.23	134.6889953613281	998.4434814453125	634.2683715820312	263.5149230957031	1000.594360351562	597.994140625	199.9993591308594	1103.771118164062	620.6399536132812	274.9087829589844	1290.768188476562	849.1665649414062	197.1130065917969	1229.127319335938	618.3909912109375	197.4590148925781	1503.005126953125	674.622802734375	268.2593383789062	1401.795166015625	833.0582275390625	94.26337432861328	1377.510131835938	634.9281616210938	270.8139038085938	1452.375854492188	609.7628173828125	383.8110046386719	1474.653442382812	671.0595703125	450.3396606445312	1347.994995117188	626.7567138671875	484.6029663085938	1130.338012695312	616.7279663085938	391.9958801269531	1119.196044921875	578.3580932617188	514.9520263671875	885.4515991210938	708.94091796875	544.1455688476562	867.676025390625	627.482666015625	507.1128845214844	1044.733154296875	626.7642211914062	516.2858276367188	716.696044921875	692.530517578125	545.0471801757812	806.9638061523438	636.0112915039062	543.040283203125	808.769287109375	704.2171630859375	71.52548217773438	1464.7529296875	780.3530883789062	0.3153440058231354	1401.095336914062	785.00341796875	-43.14118957519531	1112.686767578125	792.6163330078125	-39.12919616699219	1091.408081054688	732.3740234375	67.46611022949219	925.0081787109375	931.90625	-5.465035915374756	889.5890502929688	915.552978515625	-41.65134048461914	1058.4345703125	810.6159057617188	74.87858581542969	841.2836303710938	979.3618774414062	14.28665447235107	821.4884033203125	943.427734375	160.3496551513672	1679.42919921875	769.8687744140625	329.7345275878906	1701.982299804688	889.0081787109375	187.2831726074219	1695.64306640625	907.4605712890625	326.0796813964844	1685.588745117188	756.1416625976562	424.34912109375	936.1729125976562	694.8704833984375	54.04138565063477	929.8451538085938	788.513427734375	128.6974487304688	970.0891723632812	857.2501831054688	393.0752868652344	968.0660400390625	781.0699462890625	458.0963745117188	523.7142333984375	879.1568603515625	461.8270874023438	682.8568115234375	813.9266357421875	443.5649108886719	81.45462799072266	659.6398315429688	454.1025390625	301.0579833984375	748.3793334960938	464.9342346191406	53.1807975769043	870.4367065429688	406.0694885253906	63.85162734985352	818.9765625	497.5346984863281	56.13568878173828	764.4522705078125	369.6419677734375	98.96939086914062	617.037109375	167.2340850830078	493.619140625	817.5391235351562	87.68295288085938	777.6311645507812	832.5213623046875	205.3020324707031	43.07755279541016	700.4478149414062	196.9162902832031	351.0767211914062	805.8338623046875	317.2741088867188	41.80775833129883	895.9978637695312	334.6379699707031	39.01633071899414	820.3727416992188	230.6482543945312	44.79653167724609	830.9385986328125	237.1128082275391	33.16285705566406	632.0379028320312	96.33943939208984	759.4429321289062	967.6534423828125	
